<svg width="40" height="40" viewBox="0 0 40 40" fill="none" xmlns="http://www.w3.org/2000/svg">
<circle cx="20" cy="20" r="10" fill="#C4C4C4"/>
<path d="M20 0C24.4559 5.31355e-08 28.7841 1.488 32.298 4.2279C35.8119 6.96781 38.3102 10.8027 39.3965 15.1241C40.4828 19.4455 40.095 24.0059 38.2944 28.0818C36.4938 32.1576 33.3837 35.5155 29.4576 37.6226C25.5314 39.7296 21.014 40.4652 16.6222 39.7127C12.2303 38.9601 8.21556 36.7625 5.21488 33.4685C2.2142 30.1745 0.399464 25.9727 0.0586039 21.5299C-0.282256 17.0871 0.870284 12.6578 3.33336 8.94455L11.3288 14.2481C10.0473 16.18 9.44769 18.4845 9.62503 20.796C9.80237 23.1075 10.7465 25.2935 12.3077 27.0073C13.8689 28.7211 15.9576 29.8644 18.2426 30.256C20.5276 30.6475 22.8778 30.2648 24.9205 29.1685C26.9632 28.0723 28.5813 26.3253 29.5181 24.2047C30.4549 22.0842 30.6567 19.7115 30.0915 17.4632C29.5263 15.2149 28.2265 13.2197 26.3983 11.7942C24.5701 10.3687 22.3183 9.59454 20 9.59454V0Z" fill="#F01414" fill-opacity="0.58"/>
</svg>
